<?xml version="1.0" encoding="UTF-8"?>
<svg id="Capa_2" data-name="Capa 2" xmlns="http://www.w3.org/2000/svg" viewBox="0 0 350.63 350.63">
  <defs>
    <style>
      .cls-1 {
        fill: #fff;
      }

      .cls-2 {
        fill: #1c70e6;
      }
    </style>
  </defs>
  <g id="Capa_1-2" data-name="Capa 1">
    <g>
      <circle class="cls-2" cx="175.31" cy="175.31" r="175.31"/>
      <path class="cls-1" d="M201.12,284.41c-.53,0-1.06-.03-1.59-.08-6.56-.65-12.05-5.27-13.83-11.62l-40.09-143.49-24.47,54.77c-2.58,5.76-8.3,9.47-14.61,9.47h-31.92c-8.84,0-16-7.16-16-16s7.16-16,16-16h21.54l38.33-85.78c2.75-6.16,9.1-9.93,15.79-9.43,6.72,.5,12.42,5.16,14.23,11.65l40.97,146.65,27.65-54.35c2.73-5.37,8.24-8.74,14.26-8.74h28.63c8.84,0,16,7.16,16,16s-7.16,16-16,16h-18.82l-41.83,82.2c-2.75,5.4-8.28,8.74-14.25,8.74Z"/>
    </g>
  </g>
</svg>