<?xml version="1.0" encoding="UTF-8"?>
<svg id="Capa_2" data-name="Capa 2" xmlns="http://www.w3.org/2000/svg" viewBox="0 0 350.63 350.63">
  <defs>
    <style>
      .cls-1 {
        fill: #fff;
      }

      .cls-2 {
        fill: #1c70e6;
      }
    </style>
  </defs>
  <g id="Capa_1-2" data-name="Capa 1">
    <g>
      <circle class="cls-2" cx="175.31" cy="175.31" r="175.31"/>
      <g>
        <path class="cls-1" d="M232.55,65.42H118.08c-18.32,0-34.34,16.03-34.34,34.34V250.87c0,18.32,16.03,34.34,34.34,34.34h114.48c19.56,0,34.34-16.03,34.34-34.34V99.76c0-18.32-16.03-34.34-34.34-34.34Zm-91.58,195.37h-29c-1.24,0-3.82-2.58-3.82-3.82v-15.65c0-2.43,2.58-4.96,3.82-4.96h27.86c2.43,0,3.82,2.58,3.82,3.82v15.65c1.24,2.43-1.43,4.96-2.67,4.96Zm0-36.63h-29c-1.24,0-3.82-2.58-3.82-3.82v-15.65c0-2.43,2.58-4.96,3.82-4.96h27.86c2.43,0,3.82,2.58,3.82,3.82v15.65c1.24,2.43-1.43,4.96-2.67,4.96Zm3.82-41.59c0,2.43-2.58,4.96-3.82,4.96h-29c-1.24,0-3.82-2.58-3.82-3.82v-16.79c0-1.24,2.58-3.82,3.82-3.82h27.86c2.43,0,4.96,2.58,4.96,3.82v15.65Zm48.84,74.41c0,1.24-2.58,3.82-3.82,3.82h-27.86c-2.43,0-3.82-2.58-3.82-3.82v-15.65c0-2.43,2.58-3.82,3.82-3.82h27.86c2.43,0,3.82,2.58,3.82,3.82v15.65Zm0-36.63c0,1.24-2.58,3.82-3.82,3.82h-27.86c-2.43,0-3.82-2.58-3.82-3.82v-15.65c0-2.43,2.58-3.82,3.82-3.82h27.86c2.43,0,3.82,2.58,3.82,3.82v15.65Zm0-37.78c0,2.43-2.58,4.96-3.82,4.96h-27.86c-2.43,0-4.96-2.58-4.96-3.82v-16.79c0-1.24,2.58-3.82,3.82-3.82h27.86c2.43,0,4.96,2.58,4.96,3.82v15.65Zm48.84,74.41c0,1.24-2.58,3.82-3.82,3.82h-27.86c-2.43,0-3.82-2.58-3.82-3.82v-52.28c0-2.43,2.58-3.82,3.82-3.82h27.86c2.43,0,3.82,2.58,3.82,3.82v52.28Zm0-74.41c0,2.43-2.58,4.96-3.82,4.96h-27.86c-2.43,0-4.96-2.58-4.96-3.82v-16.79c0-1.24,2.58-3.82,3.82-3.82h27.86c2.43,0,4.96,2.58,4.96,3.82v15.65Zm0-56.09c0,6.11-4.86,12.21-12.21,12.21H120.36c-7.35,0-12.21-4.87-12.21-12.21v-24.42c0-6.11,4.86-12.21,12.21-12.21h109.9c6.11,0,12.21,4.87,12.21,12.21v24.42Zm-19.31,109.59v-13.91c0-.57,.47-1.04,1.04-1.04h2.17c.57,0,1.04,.47,1.04,1.04v13.91c0,.57-.47,1.04-1.04,1.04h-2.17c-.57,0-1.04-.47-1.04-1.04Zm-4.83-9.08h13.91c.57,0,1.04,.47,1.04,1.04v2.17c0,.57-.47,1.04-1.04,1.04h-13.91c-.57,0-1.04-.47-1.04-1.04v-2.17c0-.57,.47-1.04,1.04-1.04Z"/>
        <rect class="cls-1" x="216.73" y="173.19" width="16" height="4.25" rx="1.04" ry="1.04" transform="translate(449.46 350.63) rotate(-180)"/>
        <g>
          <rect class="cls-1" x="167.31" y="173.19" width="16" height="4.25" rx="1.04" ry="1.04" transform="translate(423.25 175.31) rotate(135)"/>
          <rect class="cls-1" x="167.31" y="173.19" width="16" height="4.25" rx="1.04" ry="1.04" transform="translate(175.31 423.25) rotate(-135)"/>
        </g>
        <rect class="cls-1" x="118.06" y="173.19" width="16" height="4.25" rx="1.04" ry="1.04" transform="translate(339.16 210.14) rotate(135)"/>
        <path class="cls-1" d="M232.81,119.15c0-4.63-2.72-6.98-8.15-6.98h-3.89c-2.06,0-3.01-.96-3.01-2.79,0-2.42,2.13-3.67,6.32-3.67,2.79,0,5.44,.44,7.93,1.4v-4.19c-2.13-.73-4.41-1.1-6.83-1.18v-5.07h-3.82v5.14c-5.58,.59-8.3,3.09-8.3,7.57s2.57,6.98,7.64,6.98h3.89c2.35,0,3.53,.96,3.53,2.79,0,2.57-1.91,3.82-5.73,3.82-3.16,0-5.95-.44-8.52-1.4v4.19c2.2,.73,4.63,1.1,7.35,1.18v4.92h3.82v-5.07c5.22-.59,7.79-3.16,7.79-7.64h0Z"/>
      </g>
    </g>
  </g>
</svg>