<?xml version="1.0" encoding="utf-8"?>
<!-- Generator: Adobe Illustrator 27.0.1, SVG Export Plug-In . SVG Version: 6.00 Build 0)  -->
<svg version="1.1" id="Capa_2_00000083070849040149362160000015618539162332624048_"
	 xmlns="http://www.w3.org/2000/svg" xmlns:xlink="http://www.w3.org/1999/xlink" x="0px" y="0px" viewBox="0 0 840.8 840.8"
	 style="enable-background:new 0 0 840.8 840.8;" xml:space="preserve">
<style type="text/css">
	.st0{fill:#1C70E6;}
	.st1{fill:#FFFFFF;}
	.st2{enable-background:new    ;}
</style>
<circle class="st0" cx="420.4" cy="420.4" r="420.4"/>
<path class="st1" d="M240.4,248.9H602c13.9,0,24.1,1.6,30.6,4.9s10.8,8.4,13,15.3s3.2,16,3.2,27.3s-1.1,20.3-3.2,27
	c-2.2,6.7-5.9,11.4-11.1,14c-7.8,3.9-18.9,5.9-33.2,5.9H477.2v327.2c0,10-0.3,17.3-1,22.1c-0.6,4.8-2.6,10.3-5.9,16.6
	c-3.2,6.3-9,10.7-17.2,13.3s-19.1,3.9-32.5,3.9s-24.2-1.3-32.2-3.9c-8-2.6-13.7-7-16.9-13.3c-3.2-6.3-5.2-11.9-5.9-16.9
	c-0.6-5-1-12.5-1-22.4V343.2H239.8c-13.9,0-24.1-1.6-30.6-4.9c-6.5-3.2-10.8-8.3-13-15.3c-2.2-6.9-3.3-16-3.3-27.3s1.1-20.3,3.3-27
	s5.9-11.4,11.1-14C215.1,250.8,226.1,248.9,240.4,248.9L240.4,248.9z"/>
<g class="st2">
	<path class="st1" d="M245.8,201.5l1.9-1.4c2.5-1.4,4.2-2.2,5.2-2.2c2.2,0,4.7,2,7.3,6.1c1.6,2.5,2.4,4.5,2.4,6.1
		c0,1.5-0.5,2.8-1.5,3.8s-2.1,1.9-3.4,2.7s-2.5,1.6-3.7,2.3s-3.6,1.7-7.3,2.8c-3.7,1.2-7.2,1.7-10.7,1.7c-3.4,0-6.9-0.5-10.4-1.4
		s-7.1-2.4-10.8-4.5s-7.1-4.7-10-7.8c-3-3.1-5.4-7-7.3-11.8c-1.9-4.8-2.9-10-2.9-15.6s0.9-10.7,2.8-15.3c1.9-4.6,4.3-8.4,7.2-11.4
		s6.3-5.5,10-7.5c7.1-3.9,14.2-5.8,21.3-5.8c3.4,0,6.8,0.5,10.3,1.6c3.5,1,6.2,2.1,8,3.2l2.6,1.5c1.3,0.8,2.3,1.4,3,1.9
		c1.9,1.5,2.8,3.2,2.8,5.1c0,1.9-0.8,3.9-2.3,6c-2.8,3.9-5.3,5.8-7.6,5.8c-1.3,0-3.1-0.8-5.5-2.4c-3-2.5-7.1-3.7-12.1-3.7
		c-4.7,0-9.3,1.6-13.9,4.9c-2.2,1.6-4,3.8-5.4,6.7s-2.2,6.2-2.2,9.8s0.7,6.9,2.2,9.8c1.4,2.9,3.3,5.2,5.5,6.8
		c4.4,3.2,9,4.8,13.8,4.8c2.2,0,4.3-0.3,6.3-0.9C243.5,202.7,245,202.1,245.8,201.5z"/>
</g>
<g class="st2">
	<path class="st1" d="M321.6,145.9c0.7-1.2,1.8-1.9,3.1-2.4c1.4-0.4,3.1-0.6,5.1-0.6s3.7,0.2,4.9,0.5c1.2,0.4,2.2,0.8,2.8,1.3
		c0.6,0.5,1.1,1.3,1.4,2.3c0.4,1.2,0.6,3.1,0.6,5.6v32.7c0,9.5-3,18.2-8.9,26c-2.9,3.7-6.6,6.7-11.2,8.9c-4.5,2.3-9.6,3.4-15.1,3.4
		s-10.5-1.2-15.1-3.5c-4.5-2.3-8.2-5.3-11-9.1c-5.8-7.7-8.8-16.3-8.8-26v-32.6c0-1.7,0.1-3,0.2-3.8s0.4-1.8,1-2.9
		c0.6-1.1,1.6-1.8,2.9-2.3c1.4-0.4,3.2-0.6,5.5-0.6s4.2,0.2,5.5,0.6c1.4,0.4,2.3,1.2,2.8,2.3c0.9,1.7,1.3,3.9,1.3,6.8V185
		c0,4.4,1.1,8.6,3.2,12.6c1.1,2,2.7,3.6,4.9,4.9c2.2,1.2,4.7,1.8,7.7,1.8c5.3,0,9.2-1.9,11.8-5.8c2.6-3.9,3.9-8.4,3.9-13.5v-33.1
		C320.6,149,320.9,147,321.6,145.9z"/>
</g>
<path class="st1" d="M388.8,148.6L418,209c1.2,2.5,1.8,4.3,1.8,5.5c0,2.6-2.1,4.9-6.3,7c-2.5,1.2-4.4,1.8-5.8,1.8s-2.6-0.3-3.5-1
	c-0.9-0.6-1.6-1.3-1.9-2.1c-0.4-0.7-1-1.8-1.7-3.2l-5.6-11.7h-30l-5.6,11.7c-0.7,1.4-1.3,2.5-1.7,3.1c-0.4,0.6-1,1.3-1.9,2
	s-2.1,1-3.5,1s-3.3-0.6-5.8-1.8c-4.2-2-6.3-4.3-6.3-6.9c0-1.2,0.6-3.1,1.8-5.5l29.2-60.5c0.8-1.7,2-3,3.6-4s3.3-1.5,5.1-1.5
	C384,143,386.9,144.8,388.8,148.6z M380,174.6l-7.1,14.8h14.4L380,174.6z"/>
<path class="st1" d="M435.5,142.8l20,0.1c10.5,0,19.7,3.8,27.6,11.3S495,171,495,182s-3.9,20.5-11.6,28.3
	c-7.8,7.9-17.2,11.8-28.2,11.8h-19.8c-4.4,0-7.1-0.9-8.2-2.7c-0.9-1.5-1.3-3.8-1.3-6.9v-60.2c0-1.7,0.1-3,0.2-3.8s0.4-1.7,1-2.8
	C428,143.8,430.8,142.8,435.5,142.8z M469.6,197.3c4.2-3.9,6.3-8.7,6.3-14.6c0-5.8-2-10.7-6.1-14.7c-4.1-3.9-8.9-5.9-14.3-5.9H445
	V203h10.5C460.7,203.1,465.4,201.1,469.6,197.3z"/>
<path class="st1" d="M562.8,208.9c1.1,2.6,1.6,4.5,1.6,5.6c0,2.7-2.2,5.1-6.7,6.9c-2.3,1-4.2,1.5-5.6,1.5c-1.4,0-2.6-0.3-3.5-1
	s-1.6-1.4-2-2.1c-0.7-1.4-3.5-7.9-8.4-19.6l-3.4,0.2h-13.6v12.2c0,1.7-0.1,2.9-0.2,3.7c-0.1,0.8-0.5,1.8-1,2.9
	c-1,1.9-3.8,2.9-8.4,2.9c-5.1,0-8-1.3-8.9-4c-0.4-1.2-0.6-3.1-0.6-5.6v-60.1c0-1.7,0.1-2.9,0.2-3.7s0.5-1.8,1-2.9
	c1-1.9,3.8-2.9,8.4-2.9h23.4c6.4,0,12.5,2.3,18.5,6.9c2.9,2.2,5.3,5.3,7.1,9.1c1.9,3.8,2.8,8.1,2.8,12.8c0,8.2-2.7,14.9-8.1,20.1
	C557,195.7,559.5,201.4,562.8,208.9z M521.2,181.3h13.9c2.1,0,4.2-0.8,6.3-2.4c2.1-1.6,3.1-4,3.1-7.1c0-3.2-1-5.6-3.1-7.2
	c-2.1-1.6-4.3-2.4-6.5-2.4h-13.6v19.1H521.2z"/>
<path class="st1" d="M616.2,148.6l29.2,60.4c1.2,2.5,1.8,4.3,1.8,5.5c0,2.6-2.1,4.9-6.3,7c-2.5,1.2-4.4,1.8-5.8,1.8s-2.6-0.3-3.5-1
	c-0.9-0.6-1.6-1.3-1.9-2.1c-0.4-0.7-1-1.8-1.7-3.2l-5.6-11.7h-30l-5.6,11.7c-0.7,1.4-1.3,2.5-1.7,3.1s-1,1.3-1.9,2s-2.1,1-3.5,1
	s-3.3-0.6-5.8-1.8c-4.2-2-6.3-4.3-6.3-6.9c0-1.2,0.6-3.1,1.8-5.5l29.2-60.5c0.8-1.7,2-3,3.6-4s3.3-1.5,5.1-1.5
	C611.4,143,614.3,144.8,616.2,148.6z M607.4,174.6l-7.1,14.8h14.4L607.4,174.6z"/>
</svg>
