<?xml version="1.0" encoding="utf-8"?>
<!-- Generator: Adobe Illustrator 27.0.1, SVG Export Plug-In . SVG Version: 6.00 Build 0)  -->
<svg version="1.1" id="Capa_2_00000048476108804854356160000002859261726305529003_"
	 xmlns="http://www.w3.org/2000/svg" xmlns:xlink="http://www.w3.org/1999/xlink" x="0px" y="0px" viewBox="0 0 1052 474.8"
	 style="enable-background:new 0 0 1052 474.8;" xml:space="preserve">
<style type="text/css">
	.st0{fill:#1C70E6;}
	.st1{fill:#FFFFFF;}
	.st2{enable-background:new    ;}
</style>
<g id="Capa_1-2">
	<g>
		<g>
			<circle class="st0" cx="814.6" cy="237.4" r="237.4"/>
			<path class="st1" d="M712.7,117.5h204.2c7.8,0,13.6,0.9,17.3,2.8s6.1,4.7,7.3,8.6c1.2,3.9,1.8,9.1,1.8,15.4s-0.6,11.4-1.8,15.2
				s-3.3,6.4-6.2,7.9c-4.4,2.2-10.7,3.3-18.7,3.3h-70.2v184.7c0,5.6-0.2,9.8-0.5,12.5c-0.4,2.7-1.5,5.8-3.3,9.4s-5.1,6.1-9.7,7.5
				c-4.7,1.5-10.8,2.2-18.4,2.2s-13.7-0.7-18.2-2.2s-7.7-4-9.5-7.5s-2.9-6.7-3.3-9.5c-0.4-2.8-0.5-7-0.5-12.7V170.8h-70.5
				c-7.8,0-13.6-0.9-17.3-2.8s-6.1-4.7-7.3-8.6c-1.2-3.9-1.8-9.1-1.8-15.4s0.6-11.4,1.8-15.2s3.3-6.4,6.2-7.9
				C698.4,118.6,704.6,117.5,712.7,117.5L712.7,117.5z"/>
		</g>
		<g class="st2">
			<path class="st1" d="M88.5,339.8l3.2-2.3c4-2.4,6.9-3.6,8.5-3.6c3.7,0,7.6,3.3,11.9,10c2.6,4.2,3.9,7.5,3.9,10s-0.8,4.6-2.4,6.2
				c-1.6,1.7-3.5,3.1-5.6,4.4s-4.2,2.5-6.1,3.7c-2,1.2-6,2.7-12,4.6s-11.9,2.8-17.5,2.8s-11.3-0.7-17.1-2.2s-11.7-4-17.8-7.5
				s-11.6-7.8-16.4-12.8c-4.9-5-8.9-11.5-12-19.4C6,326,4.4,317.4,4.4,308.2S6,290.6,9.1,283c3.1-7.5,7-13.7,11.8-18.7
				c4.8-4.9,10.3-9,16.4-12.4c11.6-6.4,23.3-9.6,35-9.6c5.6,0,11.2,0.9,17,2.6c5.7,1.7,10.1,3.5,13.1,5.2l4.3,2.5
				c2.1,1.3,3.8,2.4,5,3.2c3.1,2.5,4.6,5.3,4.6,8.4s-1.2,6.4-3.7,9.9c-4.6,6.4-8.8,9.6-12.4,9.6c-2.1,0-5.2-1.3-9.1-3.9
				c-5-4-11.6-6-19.9-6c-7.7,0-15.3,2.7-22.8,8c-3.6,2.6-6.5,6.3-8.9,11c-2.4,4.7-3.6,10.1-3.6,16.1s1.2,11.4,3.6,16.1
				c2.4,4.7,5.4,8.5,9.1,11.2c7.2,5.2,14.8,7.8,22.6,7.8c3.7,0,7.1-0.5,10.4-1.4C84.8,341.7,87.1,340.8,88.5,339.8z"/>
		</g>
		<g class="st2">
			<path class="st1" d="M213,248.5c1.2-1.9,2.9-3.2,5.2-3.9s5.1-1.1,8.4-1.1s6.1,0.3,8.1,0.9c2,0.6,3.6,1.3,4.6,2.1
				c1.1,0.8,1.8,2.1,2.3,3.7c0.7,2,1.1,5.1,1.1,9.2v53.7c0,15.6-4.9,29.9-14.6,42.7c-4.7,6-10.8,10.9-18.3,14.7s-15.7,5.6-24.8,5.6
				s-17.3-1.9-24.7-5.7c-7.4-3.8-13.4-8.8-18-14.9c-9.6-12.6-14.4-26.8-14.4-42.7v-53.5c0-2.8,0.1-4.9,0.3-6.3
				c0.2-1.4,0.7-2.9,1.7-4.7c0.9-1.8,2.5-3,4.8-3.7c2.2-0.7,5.3-1.1,9.1-1.1s6.8,0.4,9.1,1.1c2.3,0.7,3.8,2,4.6,3.7
				c1.4,2.7,2.1,6.5,2.1,11.2v53.3c0,7.2,1.8,14.1,5.3,20.6c1.8,3.3,4.4,6,8,8s7.8,3,12.6,3c8.7,0,15.1-3.2,19.4-9.6
				c4.3-6.4,6.4-13.8,6.4-22.2v-54.4C211.2,253.6,211.8,250.3,213,248.5z"/>
		</g>
		<path class="st1" d="M323.2,252.9l48,99.2c2,4,3,7.1,3,9.1c0,4.3-3.4,8.1-10.3,11.6c-4,2-7.2,3-9.5,3s-4.2-0.5-5.7-1.6
			s-2.6-2.2-3.2-3.4c-0.7-1.2-1.6-3-2.8-5.3l-9.2-19.2h-49.2l-9.2,19.2c-1.2,2.4-2.1,4.1-2.8,5.2c-0.7,1.1-1.7,2.2-3.2,3.3
			c-1.5,1.1-3.4,1.7-5.7,1.7c-2.3,0-5.5-1-9.5-3c-6.9-3.3-10.3-7.1-10.3-11.4c0-2,1-5,3-9.1l48-99.4c1.3-2.7,3.3-4.9,6-6.6
			c2.7-1.7,5.5-2.5,8.4-2.5C315.4,243.6,320.1,246.7,323.2,252.9z M308.8,295.6L297.1,320h23.6L308.8,295.6z"/>
		<path class="st1" d="M399.9,243.5l32.9,0.2c17.2,0,32.3,6.2,45.3,18.6s19.6,27.6,19.6,45.7s-6.4,33.6-19.1,46.5
			s-28.2,19.4-46.3,19.4h-32.5c-7.2,0-11.7-1.5-13.5-4.4c-1.4-2.5-2.1-6.3-2.1-11.4v-98.9c0-2.8,0.1-4.9,0.3-6.2
			c0.2-1.3,0.7-2.8,1.7-4.6C387.6,245.1,392.3,243.5,399.9,243.5z M455.9,332.8c6.9-6.3,10.3-14.3,10.3-23.9s-3.4-17.6-10-24.1
			c-6.7-6.5-14.6-9.7-23.6-9.7h-17.1v67.2h17.2C441.3,342.3,449,339.2,455.9,332.8z"/>
		<path class="st1" d="M608.9,351.9c1.8,4.3,2.7,7.4,2.7,9.2c0,4.5-3.7,8.3-11,11.4c-3.8,1.7-6.8,2.5-9.2,2.5s-4.2-0.6-5.7-1.7
			s-2.6-2.3-3.3-3.5c-1.2-2.2-5.8-13-13.9-32.2L563,338h-22.4v20.1c0,2.7-0.1,4.8-0.3,6.1c-0.2,1.4-0.7,2.9-1.7,4.7
			c-1.7,3.2-6.3,4.8-13.9,4.8c-8.3,0-13.2-2.2-14.6-6.6c-0.7-2-1.1-5.1-1.1-9.2v-98.7c0-2.7,0.1-4.8,0.3-6.1
			c0.2-1.4,0.7-2.9,1.7-4.7c1.7-3.2,6.3-4.8,13.9-4.8h38.4c10.4,0,20.6,3.8,30.4,11.4c4.7,3.7,8.7,8.7,11.7,14.9
			c3.1,6.3,4.6,13.3,4.6,21c0,13.4-4.4,24.4-13.3,33.1C599.5,330.3,603.5,339.6,608.9,351.9z M540.7,306.6h22.8
			c3.4,0,6.9-1.3,10.3-3.9c3.4-2.6,5.2-6.5,5.2-11.7s-1.7-9.2-5.2-11.8c-3.4-2.7-7-4-10.7-4h-22.4L540.7,306.6L540.7,306.6z"/>
		<path class="st1" d="M696.6,252.9l48,99.2c2,4,3,7.1,3,9.1c0,4.3-3.4,8.1-10.3,11.6c-4,2-7.2,3-9.5,3s-4.2-0.5-5.7-1.6
			s-2.5-2.2-3.2-3.4c-0.7-1.2-1.6-3-2.8-5.3l-9.2-19.2h-49.2l-9.2,19.2c-1.2,2.4-2.1,4.1-2.8,5.2s-1.7,2.2-3.2,3.3
			c-1.5,1.1-3.4,1.7-5.7,1.7s-5.5-1-9.5-3c-6.9-3.3-10.3-7.1-10.3-11.4c0-2,1-5,3-9.1l48-99.4c1.3-2.7,3.3-4.9,6-6.6
			c2.7-1.7,5.5-2.5,8.4-2.5C688.8,243.6,693.5,246.7,696.6,252.9z M682.2,295.6L670.5,320h23.6L682.2,295.6z"/>
	</g>
</g>
</svg>
