<?xml version="1.0" encoding="UTF-8"?>
<svg id="Capa_2" data-name="Capa 2" xmlns="http://www.w3.org/2000/svg" viewBox="0 0 970.75 229.93">
  <defs>
    <style>
      .cls-1 {
        fill: #1c70e6;
      }

      .cls-2 {
        fill: #1d1d1b;
      }
    </style>
  </defs>
  <g id="Capa_1-2" data-name="Capa 1">
    <g>
      <path class="cls-2" d="M84.09,153.32l3.2-2.31c4.03-2.37,6.87-3.56,8.53-3.56,3.67,0,7.65,3.32,11.91,9.96,2.61,4.15,3.91,7.47,3.91,9.96s-.8,4.56-2.4,6.22c-1.6,1.66-3.47,3.14-5.6,4.44-2.13,1.31-4.18,2.55-6.13,3.73-1.96,1.19-5.96,2.73-12,4.62s-11.88,2.84-17.51,2.84-11.32-.74-17.07-2.22c-5.75-1.48-11.68-3.97-17.78-7.47-6.11-3.49-11.59-7.76-16.45-12.8-4.86-5.04-8.86-11.5-12-19.38-3.14-7.88-4.71-16.45-4.71-25.69s1.54-17.63,4.62-25.16c3.08-7.53,7.02-13.75,11.82-18.67,4.8-4.92,10.28-9.04,16.45-12.36,11.62-6.4,23.29-9.6,35.03-9.6,5.57,0,11.23,.86,16.98,2.58,5.75,1.72,10.1,3.47,13.07,5.24l4.27,2.49c2.13,1.31,3.79,2.37,4.98,3.2,3.08,2.49,4.62,5.31,4.62,8.45s-1.25,6.43-3.73,9.87c-4.62,6.4-8.77,9.6-12.45,9.6-2.13,0-5.16-1.3-9.07-3.91-4.98-4.03-11.62-6.04-19.91-6.04-7.71,0-15.29,2.67-22.76,8-3.56,2.61-6.52,6.28-8.89,11.02-2.37,4.74-3.55,10.11-3.55,16.09s1.18,11.35,3.55,16.09c2.37,4.74,5.39,8.48,9.07,11.2,7.23,5.22,14.76,7.82,22.58,7.82,3.67,0,7.14-.47,10.4-1.42,3.26-.95,5.6-1.89,7.02-2.84Z"/>
      <path class="cls-2" d="M208.54,61.93c1.18-1.89,2.9-3.2,5.16-3.91,2.25-.71,5.07-1.07,8.45-1.07s6.07,.3,8.09,.89c2.01,.59,3.56,1.31,4.62,2.13,1.07,.83,1.84,2.08,2.31,3.73,.71,2.02,1.07,5.1,1.07,9.25v53.69c0,15.65-4.86,29.87-14.58,42.67-4.74,6.04-10.84,10.93-18.31,14.67-7.47,3.73-15.73,5.6-24.8,5.6s-17.31-1.9-24.71-5.69c-7.41-3.79-13.42-8.77-18.04-14.93-9.6-12.56-14.4-26.79-14.4-42.67v-53.51c0-2.84,.09-4.95,.27-6.31,.18-1.36,.74-2.93,1.69-4.71,.95-1.78,2.55-3.02,4.8-3.73,2.25-.71,5.27-1.07,9.07-1.07s6.81,.36,9.07,1.07c2.25,.71,3.79,1.96,4.62,3.73,1.42,2.73,2.13,6.46,2.13,11.2v53.34c0,7.23,1.78,14.11,5.33,20.62,1.78,3.32,4.45,5.99,8,8,3.55,2.02,7.76,3.02,12.62,3.02,8.65,0,15.11-3.2,19.38-9.6,4.27-6.4,6.4-13.81,6.4-22.22v-54.4c0-4.62,.59-7.88,1.78-9.78Z"/>
      <path class="cls-2" d="M318.78,66.38l48,99.21c2.01,4.03,3.02,7.05,3.02,9.07,0,4.27-3.44,8.12-10.31,11.56-4.03,2.01-7.2,3.02-9.51,3.02s-4.21-.53-5.69-1.6c-1.48-1.07-2.55-2.19-3.2-3.38-.65-1.18-1.57-2.96-2.76-5.33l-9.25-19.2h-49.25l-9.25,19.2c-1.19,2.37-2.11,4.09-2.76,5.16-.65,1.07-1.72,2.16-3.2,3.29-1.48,1.12-3.38,1.69-5.69,1.69s-5.48-1.01-9.51-3.02c-6.88-3.32-10.31-7.11-10.31-11.38,0-2.01,1.01-5.04,3.02-9.07l48-99.38c1.3-2.73,3.29-4.92,5.96-6.58,2.67-1.66,5.48-2.49,8.45-2.49,6.4,0,11.14,3.08,14.22,9.25Zm-14.4,42.67l-11.73,24.36h23.65l-11.91-24.36Z"/>
      <path class="cls-2" d="M395.4,56.95l32.89,.18c17.19,0,32.3,6.19,45.34,18.58,13.04,12.39,19.56,27.62,19.56,45.69s-6.37,33.57-19.11,46.49c-12.74,12.92-28.18,19.38-46.31,19.38h-32.54c-7.23,0-11.73-1.48-13.51-4.44-1.42-2.49-2.13-6.28-2.13-11.38V72.6c0-2.84,.09-4.92,.27-6.22,.18-1.3,.74-2.84,1.69-4.62,1.66-3.2,6.28-4.8,13.87-4.8Zm56,89.34c6.87-6.34,10.31-14.31,10.31-23.91s-3.35-17.63-10.05-24.09c-6.7-6.46-14.55-9.69-23.56-9.69h-17.07v67.21h17.25c8.53,0,16.24-3.17,23.11-9.51Z"/>
      <path class="cls-2" d="M604.48,165.41c1.78,4.27,2.67,7.35,2.67,9.25,0,4.51-3.68,8.3-11.02,11.38-3.79,1.66-6.84,2.49-9.16,2.49s-4.21-.56-5.69-1.69c-1.48-1.12-2.58-2.28-3.29-3.47-1.19-2.25-5.81-12.98-13.87-32.18l-5.51,.36h-22.4v20.09c0,2.73-.09,4.77-.27,6.13-.18,1.36-.74,2.93-1.69,4.71-1.66,3.2-6.28,4.8-13.87,4.8-8.3,0-13.16-2.19-14.58-6.58-.71-2.01-1.07-5.09-1.07-9.25V72.78c0-2.73,.09-4.77,.27-6.13,.18-1.36,.74-2.93,1.69-4.71,1.66-3.2,6.28-4.8,13.87-4.8h38.4c10.43,0,20.56,3.79,30.4,11.38,4.74,3.67,8.65,8.65,11.73,14.93,3.08,6.28,4.62,13.28,4.62,20.98,0,13.4-4.45,24.42-13.33,33.07,2.61,6.28,6.63,15.59,12.09,27.91Zm-68.27-45.34h22.76c3.44,0,6.87-1.3,10.31-3.91,3.44-2.61,5.16-6.52,5.16-11.73s-1.72-9.16-5.16-11.82c-3.44-2.67-7-4-10.67-4h-22.4v31.47Z"/>
      <path class="cls-2" d="M692.13,66.38l48,99.21c2.01,4.03,3.02,7.05,3.02,9.07,0,4.27-3.44,8.12-10.31,11.56-4.03,2.01-7.2,3.02-9.51,3.02s-4.21-.53-5.69-1.6c-1.48-1.07-2.55-2.19-3.2-3.38-.65-1.18-1.57-2.96-2.76-5.33l-9.24-19.2h-49.25l-9.25,19.2c-1.19,2.37-2.11,4.09-2.76,5.16-.65,1.07-1.72,2.16-3.2,3.29-1.48,1.12-3.38,1.69-5.69,1.69s-5.48-1.01-9.51-3.02c-6.88-3.32-10.31-7.11-10.31-11.38,0-2.01,1.01-5.04,3.02-9.07l48-99.38c1.3-2.73,3.29-4.92,5.96-6.58,2.67-1.66,5.48-2.49,8.45-2.49,6.4,0,11.14,3.08,14.22,9.25Zm-14.4,42.67l-11.73,24.36h23.65l-11.91-24.36Z"/>
      <path class="cls-1" d="M855.79,0c-63.49,0-114.96,51.47-114.96,114.96s51.47,114.96,114.96,114.96,114.96-51.47,114.96-114.96S919.28,0,855.79,0Zm61.45,77.27c-.59,1.84-1.6,3.11-3.03,3.82-2.13,1.07-5.16,1.6-9.07,1.6h-33.97v89.47c0,2.73-.09,4.74-.27,6.05-.18,1.31-.71,2.82-1.6,4.54-.89,1.72-2.46,2.93-4.71,3.65-2.25,.71-5.22,1.07-8.89,1.07s-6.61-.36-8.81-1.07c-2.19-.71-3.73-1.93-4.62-3.65-.89-1.72-1.42-3.26-1.6-4.62-.18-1.36-.27-3.41-.27-6.14V82.69h-34.15c-3.8,0-6.58-.44-8.36-1.33-1.78-.89-2.96-2.28-3.56-4.18-.59-1.9-.89-4.39-.89-7.47s.3-5.54,.89-7.38c.59-1.84,1.6-3.11,3.02-3.82,2.13-1.07,5.16-1.6,9.07-1.6h98.9c3.79,0,6.58,.44,8.36,1.33,1.78,.89,2.96,2.28,3.56,4.18,.59,1.9,.89,4.39,.89,7.47s-.3,5.54-.89,7.38Z"/>
    </g>
  </g>
</svg>