<?xml version="1.0" encoding="UTF-8"?>
<svg id="Capa_2" data-name="Capa 2" xmlns="http://www.w3.org/2000/svg" viewBox="0 0 349.69 349.69">
  <defs>
    <style>
      .cls-1 {
        fill: #fff;
      }

      .cls-2 {
        fill: #1c70e6;
      }
    </style>
  </defs>
  <g id="Capa_1-2" data-name="Capa 1">
    <g>
      <circle class="cls-2" cx="174.85" cy="174.85" r="174.85"/>
      <path class="cls-1" d="M99.78,86.54H250.19c5.77,0,10.01,.68,12.71,2.03s4.51,3.47,5.41,6.36c.9,2.89,1.35,6.67,1.35,11.36s-.45,8.43-1.35,11.23c-.9,2.8-2.44,4.73-4.6,5.82-3.25,1.62-7.84,2.43-13.8,2.43h-51.67v136.07c0,4.15-.13,7.22-.41,9.2-.27,1.99-1.08,4.29-2.44,6.9-1.35,2.62-3.74,4.46-7.17,5.55-3.43,1.08-7.94,1.62-13.52,1.62s-10.06-.54-13.39-1.62c-3.34-1.08-5.68-2.93-7.03-5.55-1.35-2.61-2.16-4.96-2.44-7.03-.27-2.07-.41-5.18-.41-9.33V125.77h-51.94c-5.77,0-10.01-.68-12.71-2.03s-4.51-3.47-5.41-6.36c-.9-2.88-1.35-6.67-1.35-11.36s.45-8.43,1.35-11.23c.9-2.79,2.43-4.73,4.6-5.82,3.25-1.62,7.84-2.43,13.8-2.43Z"/>
    </g>
  </g>
</svg>