<?xml version="1.0" encoding="UTF-8"?>
<svg id="Capa_2" data-name="Capa 2" xmlns="http://www.w3.org/2000/svg" viewBox="0 0 350.16 350.16">
  <defs>
    <style>
      .cls-1 {
        fill: #fff;
      }

      .cls-2 {
        fill: #1c70e6;
      }
    </style>
  </defs>
  <g id="Capa_1-2" data-name="Capa 1">
    <g>
      <circle class="cls-2" cx="175.08" cy="175.08" r="175.08"/>
      <g>
        <path class="cls-1" d="M213.69,128.69l-31.16-45.1c-4.09-5.93-10.79-5.93-14.89,0l-31.17,45.09c-4.09,5.92-.75,10.77,7.45,10.77h9.55s0,47.41,0,47.41c0,9.97,9.67,18.06,21.61,18.06,11.94,0,21.61-8.08,21.62-18.05v-47.4s9.56,0,9.56,0c8.19,0,11.54-4.85,7.45-10.77Z"/>
        <rect class="cls-1" x="63.63" y="234.8" width="222.91" height="36.22" rx="15.74" ry="15.74"/>
        <rect class="cls-1" x="227.51" y="212" width="81.82" height="36.22" rx="15.74" ry="15.74" transform="translate(38.31 498.54) rotate(-90)"/>
        <rect class="cls-1" x="40.83" y="212" width="81.82" height="36.22" rx="15.74" ry="15.74" transform="translate(-148.37 311.85) rotate(-90)"/>
      </g>
    </g>
  </g>
</svg>