<?xml version="1.0" encoding="UTF-8"?>
<svg id="Capa_2" data-name="Capa 2" xmlns="http://www.w3.org/2000/svg" viewBox="0 0 350.63 350.63">
  <defs>
    <style>
      .cls-1 {
        fill: #fff;
      }

      .cls-2 {
        fill: #1c70e6;
      }
    </style>
  </defs>
  <g id="Capa_1-2" data-name="Capa 1">
    <g>
      <circle class="cls-2" cx="175.31" cy="175.31" r="175.31"/>
      <g>
        <path class="cls-1" d="M191.3,133.33c0,26.2-21.24,47.43-47.43,47.43s-47.43-21.24-47.43-47.43,21.24-47.43,47.43-47.43,47.43,21.24,47.43,47.43Z"/>
        <path class="cls-1" d="M220.73,255.79c-4.43-38.54-37.12-68.42-76.86-68.42-.07,0-.13,0-.2,0s-.13,0-.2,0c-39.74,0-72.43,29.88-76.86,68.42-.34,2.93-.03,5.96,1.9,7.47s5.68,1.48,5.68,1.48H213.15s3.75,.03,5.68-1.48c1.93-1.51,2.23-4.53,1.9-7.47Z"/>
      </g>
      <path class="cls-1" d="M279.74,148l-37.49,37.49-16.88-16.88c-3.23-3.23-8.44-3.23-11.42,0-3.23,3.23-3.23,8.44,0,11.42l22.59,22.59c3.23,3.23,8.44,3.23,11.42,0l43.45-43.2c3.23-3.23,3.23-8.44,0-11.42-3.22-3.22-8.43-3.23-11.66-.01,0,0,0,0-.01,.01Z"/>
    </g>
  </g>
</svg>